# xmcd
#
# Track frame offsets:
#	150
#	12037
#	25523
#	44094
#	59238
#	71107
#	82007
#	95824
#	110986
#	124040
#	139417
#	152284
#	163187
#	174417
#	184922
#	203637
#
# Disc length: 2927 seconds
#
# Revision: 0
# Processed by: cddbd v1.5.1PL0 Copyright (c) Steve Scherf et al.
# Submitted via: EasyCDDAExtractor 8.0.2.1
#
DISCID=e90b6d10
DTITLE=Kenny Rogers - The Country Collection
DYEAR=2005
DGENRE=Country
TTITLE0=Me and Bobby McGee
TTITLE1=Ruby Don't Take Your Love To Town 
TTITLE2=I Believe In Music
TTITLE3=Just Dropped In
TTITLE4=A Poem For My Lady
TTITLE5=Always Leaving, Always Gone
TTITLE6=But You Know I Love You
TTITLE7=Tell It All Brother
TTITLE8=Sleep Comes Easy
TTITLE9=For The Good Times
TTITLE10=Run Through Your Mind
TTITLE11=She Even Woke Me Up To Say Goodbye
TTITLE12=Hurry Up Love
TTITLE13=Ticket To Nowhere
TTITLE14=The King Of Oak Street
TTITLE15=The Way It Used To Be
EXTD=
EXTT0=
EXTT1=
EXTT2=
EXTT3=
EXTT4=
EXTT5=
EXTT6=
EXTT7=
EXTT8=
EXTT9=
EXTT10=
EXTT11=
EXTT12=
EXTT13=
EXTT14=
EXTT15=
PLAYORDER=
